<svg width="235" height="48" viewBox="0 0 235 48" xmlns="http://www.w3.org/2000/svg"><g fill="#E8308A" fill-rule="nonzero"><path d="M47.182 18.4l-2.227 11.903c-.32 1.635-1 2.226-2.137 2.226h-2.273c-1.136 0-1.727-.82-2.136-2.136l-1.365-4.59c-.045-.135-.09-.18-.18-.18-.092 0-.138.045-.183.18l-1.364 4.59c-.41 1.363-1 2.135-2.136 2.135H30.91c-1.137 0-1.82-.592-2.137-2.227L26.545 18.4v-.09c0-.183.182-.365.364-.365h4c.272 0 .363.137.408.41l1.227 8.586c.046.137.09.183.182.183.09 0 .137-.046.182-.182l1.454-5.133c.18-.59.454-1.045 1.41-1.045h2c.953 0 1.226.41 1.408 1.045l1.454 5.134c.046.137.137.183.182.183.09 0 .137-.046.182-.182l1.227-8.586c.046-.318.182-.41.41-.41h4c.18 0 .363.183.363.365.182.044.182.09.182.09zM60.682 32.53h-3.5c-.273 0-.5-.228-.5-.5v-.546c-.955.68-2.227 1.272-3.59 1.272-2 0-4.274-1.09-4.274-4.498v-.318c0-2.998 2.273-4.09 6.455-4.09h1.09v-.68c0-1.227-.818-1.454-1.636-1.454-1.59 0-3.182.046-4.363.182h-.09c-.274 0-.456-.182-.456-.5v-2.453c0-.273.182-.5.5-.59.818-.273 3-.59 4.59-.59 3.637 0 6.274 1.316 6.274 5.405v8.86c0 .272-.227.5-.5.5zm-4.137-6.043h-1.227c-1.273 0-1.773.408-1.773 1.453v.273c0 .863.59 1.09 1.273 1.09.59 0 1.273-.18 1.727-.363v-2.453zM68.364 32.53H64.59c-.272 0-.545-.274-.545-.546v-18.31c0-.272.273-.5.546-.5h3.774c.272 0 .5.228.5.5v18.31c0 .272-.228.545-.5.545zM85.227 32.53H80.59c-.272 0-.545-.137-.772-.546l-3.182-5.725v5.724c0 .272-.227.545-.5.545h-3.772c-.273 0-.546-.274-.546-.546v-18.31c0-.272.273-.5.546-.5h3.772c.273 0 .5.228.5.5V24.17l3.455-5.725c.228-.41.455-.454.728-.454h4.318c.228 0 .364.137.364.32 0 .09-.045.135-.09.226l-4.32 6.497 4.455 6.996c.046.09.046.135.046.18-.045.137-.135.32-.363.32zM95.227 32.574c-.5.09-1.136.137-1.636.137-2.317 0-3.408-.59-3.408-3.36v-8.77l-2.455-.272c-.272-.046-.454-.182-.454-.454v-.682c0-.273.182-.454.454-.454h2.455v-2.454c0-.272.182-.454.454-.5l1.32-.18h.09c.18 0 .363.18.363.408v2.726h2.726c.273 0 .5.227.5.5v.863c0 .273-.227.5-.5.5H92.41v8.77c0 1.362.363 1.59 1.363 1.59h1.41c.362 0 .544.09.544.362v.863c-.045.228-.182.364-.5.41zM108.273 32.53h-1.182c-.272 0-.5-.228-.5-.5v-8.224c0-2.5-1.045-3.27-2.68-3.27-.774 0-2.365.18-3.455.68V32.03c0 .272-.228.5-.5.5h-1.228c-.272 0-.454-.228-.454-.5V14.174c0-.273.182-.5.454-.5H100c.273 0 .455.227.455.5v5.18c1.18-.546 2.772-.774 3.818-.774 2.636 0 4.5 1.546 4.5 5.226v8.223c0 .272-.228.5-.5.5zM122.273 26.35h-8.41v.364c0 2.998 1.182 4.09 3.5 4.09 1.455 0 3.32-.092 4.455-.274h.137c.18 0 .41.09.41.363v.864c0 .318-.092.5-.5.59-1.41.273-2.82.41-4.5.41-2.865 0-5.683-1.364-5.683-5.998v-2.272c0-3.59 2-5.86 5.545-5.86 3.682 0 5.5 2.316 5.5 5.86v1.362c0 .273-.182.5-.454.5zm-1.773-1.908c0-2.817-1.09-3.952-3.273-3.952-2.136 0-3.363 1.226-3.363 3.952v.227h6.636v-.228zM145.455 18.4l-2.228 11.903c-.318 1.635-1 2.226-2.136 2.226h-2.272c-1.136 0-1.727-.82-2.136-2.136l-1.364-4.59c-.045-.135-.09-.18-.182-.18-.09 0-.136.045-.18.18l-1.365 4.59c-.408 1.363-1 2.135-2.135 2.135h-2.273c-1.137 0-1.818-.592-2.137-2.227L124.818 18.4v-.09c0-.183.182-.365.364-.365h4c.273 0 .363.137.41.41l1.226 8.586c.046.137.09.183.182.183.09 0 .136-.046.182-.182l1.454-5.133c.182-.59.455-1.045 1.41-1.045h2c.954 0 1.227.41 1.41 1.045l1.453 5.134c.045.137.135.183.18.183.092 0 .137-.046.183-.182l1.227-8.586c.045-.318.182-.41.41-.41h4c.18 0 .363.183.363.365.182.044.182.09.182.09zM158.955 32.53h-3.5c-.273 0-.5-.228-.5-.5v-.546c-.955.68-2.228 1.272-3.59 1.272-2 0-4.274-1.09-4.274-4.498v-.318c0-2.998 2.274-4.09 6.455-4.09h1.09v-.68c0-1.227-.817-1.454-1.635-1.454-1.59 0-3.182.046-4.364.182h-.09c-.273 0-.455-.182-.455-.5v-2.453c0-.273.183-.5.5-.59.82-.273 3-.59 4.592-.59 3.636 0 6.273 1.316 6.273 5.405v8.86c0 .272-.228.5-.5.5zm-4.182-6.043h-1.228c-1.272 0-1.772.408-1.772 1.453v.273c0 .863.59 1.09 1.272 1.09.59 0 1.273-.18 1.728-.363v-2.453zM166.636 32.53h-3.772c-.273 0-.546-.274-.546-.546v-18.31c0-.272.273-.5.546-.5h3.772c.273 0 .5.228.5.5v18.31c0 .272-.227.545-.5.545zM183.5 32.53h-4.636c-.273 0-.546-.137-.773-.546l-3.18-5.725v5.724c0 .272-.228.545-.5.545h-3.774c-.272 0-.545-.274-.545-.546v-18.31c0-.272.274-.5.546-.5h3.773c.272 0 .5.228.5.5V24.17l3.454-5.725c.227-.41.454-.454.727-.454h4.32c.226 0 .363.137.363.32 0 .09-.046.135-.09.226l-4.32 6.497 4.455 6.996c.046.09.046.135.046.18-.046.137-.182.32-.364.32zM9.09.318l.092-.09c.363.453 1.182.635 1.227 1.362.363.09.317.5.317.818-.136.818-.59 1.863-1.454 2-.046.135-.273.27-.09.408-.183.045-.456.18-.638 0-.91-.863-1-2.408-.818-3.635.228-.226.09-.362.228-.635.272-.318.772-.363 1.136-.227zM12.864 3.635l-.09-.09c-.41.317.044.68-.092 1.134l.227.227.18-.228.092.09c-.046.046-.09.09-.09.182.226.273.5-.182.726 0H14c.045.318.41.136.545.318l.728.5-.09.09.226.137c-.046.045-.092.09-.092.182l.09.09.092-.09c0 .09 0 .18.09.226l.092-.09-.046.044c.09.046.09.137.09.228l-.09.09c.228.182-.136.41.09.546-.09.136-.135.408-.09.5h.09l-1.044.953c-.09-.045-.273.046-.318-.09-.41.272-.682-.182-.955-.318-.137-.092-.183-.32-.41-.23l.09-.09c-.545-.636-.363-1.362-.408-2.09-.41.32-.773 1.046-1.364.637-.545-.773-1.318-1.363-.863-2.408.227-.637.727-1.5 1.545-1.546.318.227.818.636.864 1.09zM16.91 8.54c.045-.044.09-.09.09-.18 0 .317.41.363.227.635.09.137.273.046.41 0-.092-.045-.092.046-.182.09l.227.138-.09.09c.226.41.544.864.5 1.273.135.318.09.545.09.817-.09.137-.09.318-.09.5.044.09 0 .363 0 .545-.092 0-.092.046-.137.09-.046.047.045.092.09.137-.227 0-.363.137-.59.09.09-.044.272.047.318-.09-.546.09-.91-.454-1.228-.727l.09-.09-.817-.636-.09.09c-.364-.408-.637-.772-.955-1.317.136-.227-.273-.41-.182-.727.5-.59 1.32-.954 2-.91l.092-.135.227.318zM6.89 20.387c-.125.186-.31-.062-.435-.125.062.187.31.063.435.125zM8.435 21.3v.125L8 20.99c.187 0 .25.248.435.31zM9.715 31.874l-.124-.125c.187 0 .25-.187.187-.31 0 .123.125.372-.062.434zM7.09 32.8l.092.092c-.455.318-.59.818-1.046 1.045L6 33.757c-.227.135.227.453-.182.498 0-.09.046-.18-.09-.227.18-.136.227-.318.317-.5l.09.09c.047-.09.183-.135.183-.226l-.09-.09c.09 0 .09-.046.18-.092v-.18c.274.09.183-.23.41-.32-.045.046.046.09.09.137l.32-.227c-.046.09-.092.136-.137.18z"/><path d="M7.318 2c.137.5.046 1.18.09 1.59l.092.09c-.045.045-.09.09-.09.136.135.227-.228.41-.137.727-.455.545-.91 1.09-1.364 1.59l.09.09-.227.32-.09-.092-.228.228.09.09c-.045.047-.09.092-.09.183.09.092 0 .274-.09.41l-.865.363c.364.137.773.046 1.136 0-.045.046.046.09.09.137.23-.09.5.18.82.09-.046.09.045.09.09.182.09.046.09-.045.182-.09-.045.136-.09.227-.09.408l.09.09c.09-.226.364-.408.137-.635.136.273.227.045.41 0l-.138.136.228.32c.09-.046.09-.137.09-.228.09 0 .182 0 .228-.09l.41.317c.044-.046.09-.09.09-.137l-.09-.09.09.09.182-.182c.045.047.09.092.136.092l.092-.09c.045.09.136.09.227.09l.09-.09c-.136-.092 0-.228.09-.32.183.047.274-.09.41-.18l-.136-.137c.045.09.136.09.227.09.183-.09 0-.226 0-.317.274.136.41-.227.637 0l.09-.09c1.547-.046 1.274 1.953 2.638 2.18 1.136.273.954 1.545 1.863 2.18.727.773 1.727 1.046 2.5 1.59.046-.045.09-.09.137-.09l.09.09-.136.137c.09.046.135.182.226.182l-.09.09.5.637c-.09.18.09.454.136.636-.09.318.182.636.09.863.455.454.183 1.227.228 1.863-.045.5-.227.954-.182 1.544-.045-.045-.09.046-.136.09l.09.092c-.317 1-.363 2.09-.545 3.135v.818c-.136 1.862-.636 3.543-.818 5.36-.365 1.318-.5 2.726-1.137 3.953.045.182-.09.5-.137.727.046.454-.09.818-.18 1.18l.09.092c-.09.636-.09 1.272-.32 1.863.138.045.047.227.092.318v1.226l.09.09-.09.092v.863c-.273.68.227 1.408-.182 1.998.046.182.182.455 0 .636l.09.09-.09.092c.182.41-.272.727-.227 1.227-.637.5-.41 1.363-1.046 1.862-.137.364-.455.727-.82.954-.408.045-.726.545-1.135.5-.41.317-.865.454-1.274.635-.363 0-.68.137-1.045.09 0-.317-.408-.044-.59-.226-.045.044-.09.09-.09.18-.137-.317-.5-.09-.637-.317l-.09.09-.32-.227-.09.09-.09-.09c.09.046.09-.045.135-.09-.045-.137-.227-.046-.318-.09.045-.092-.045-.092-.09-.138-.046.046-.092.09-.092.137-.09.045-.09-.046-.136-.09l.09-.092c-.045-.136-.227-.046-.317-.09.045-.092-.09-.137-.137-.228l.227-.182c-.045-.09-.136-.09-.227-.09-.227 0-.59-.092-.818-.41-.136-.408-.59-.772-.636-1.272-.364-.498-.59-1.044-.728-1.59.046-.317-.09-.77-.09-1.225 0-.273.045-.636 0-.818l.09-.09c-.18-1-.09-2.136.41-3-.182-.454 0-.954.18-1.362.092 0 .183 0 .23.09 0-.18.044-.5.226-.727.41-.09.136-.817.727-.726l.408.408c.046-.045.09-.09.09-.18-.044-.047-.09-.092-.135-.092l.09-.09c-.09-.228-.408-.092-.318-.41.273-.136.455-.41.546-.636.274 0 .092-.41.41-.41l.182.183c.136-.136.09-.364 0-.5.045.046.09-.045.136-.09v-.092c.318.046.046.546.227.727.32-.318-.045-.727.5-.954-.045-.045-.09-.09-.09-.136l.09-.09c.046.045.09.09.137.09.227-.09-.046-.273-.09-.318.09 0 .226.182.317 0-.183-.09-.183-.273-.092-.41.046 0 .09.047.137.092.045-.045.09-.09.09-.136.046.045.09.09.09.136l-.09.09c.137.046.228.228.41.137-.09 0-.182 0-.228.092.046.09.137.09.228.09-.182.046-.364-.045-.41-.226l-.318.318c.09.18.182 0 .318 0 .046.09-.045.272.09.318l.138-.137-.09-.09.135.136.182-.135c.045.136.227.045.318.09l.182-.408c.045.09.136.09.227.09l.09-.09.092.09.09-.09-.09.09c.09.182.317.137.5.182.045-.046.09-.092.09-.183l.227.228c.046-.046.09-.09.137-.09-.046.044-.09.09-.09.135l.09.09.09-.09c.046.136.228.045.32.09l.09-.09c-.046-.09-.137-.09-.228-.09.046-.092-.045-.092-.09-.183l.136-.136c-.09-.09-.227-.18-.227-.317.045.046.09.09.18.09.138-.18.047-.5.092-.726-.227-.318-.636-.454-.818-.727l.09-.09c-.273-.182.136-.092.09-.32l.228-.226.09.09c.183-.408-.408-.59-.5-.953.047-.226-.09-.317-.135-.5l-.09.092c-.047 0 .226-.363 0-.545l.18.136c.046-.045.092-.09.092-.136l-.09-.09.09-.092c-.5-.09-.182-.227-.41-.636l.09-.092c-.044-.045-.09-.09-.135-.09l.136-.137-.41-.135.092-.09-.09-.092.09-.09-.09-.092c.408 0 .136-.59.59-.726-.182-.272-.273.182-.5.137 0-.136.137-.18.09-.317l-.09-.09-.136.18c0-.09-.046-.09-.09-.18h-.183l.09-.092-.182-.135-.09.09c-.046-.136.045-.227.136-.317-.09.045-.09.136-.09.227l.09.09.09-.09c.046.09.137.09.228.09l.09-.09c0 .09.046.09.092.136 0-.18.318-.453 0-.544l-.09-.09c.18-.137.27-.32.226-.592-.045-.09-.136-.09-.227-.09l-.09.09c-.228.09.044.273.09.318l-.137-.136-.09.09c-.137-.272.227-.453 0-.635-.41.273-.137.682-.32.864 0-.045.047-.09.092-.136-.045-.046-.09-.09-.136-.09l.136-.183c-.045-.09-.136-.09-.227-.09-.045-.092.046-.092.092-.137-.046.045.045.09.09.136.137-.09.046-.272.092-.41l-.137-.135.228-.228c-.046-.045-.09-.09-.137-.09l-.136.135c0-.09-.046-.5-.227-.545 0-.09 0-.18.09-.227-.136-.09-.41-.136-.5-.09 0-.092-.045-.092-.09-.137l-.09.09c-.047-.045-.092-.09-.183-.09v-.09c.09 0 .273-.092.318.09l.318-.318c-.045-.09-.136-.09-.227-.09l-.09.09-.227-.41-.09.092-.32-.318c.092 0 .182.045.228-.09-.045-.046-.09-.092-.135-.092-.046-.09.045-.09.09-.136l.09.09.138-.18c-.228-.137-.682-.046-.864-.092l-.092-.09c-.182 0 .09 0 .09-.092-.363-.045-.726-.227-1.044-.18l-.09-.092c-.274.182-.547-.09-.82-.227l.09-.09-.09-.092-.045-.044c-.32-.91-1.32-.455-1.774-1.227-.41-.047-.818-.183-1.136-.5.09.045.09-.046.182-.092l-.09-.09c.044.045.09-.046.135-.09-.41-.41-.91-.547-1.454-.638C1.09 16.128.41 15.447.41 14.31c-.637-1.044-.137-2.09 0-3.225.363-.545.68-1.272 1.045-1.908-.09-.363.41-.5.227-.863l.41-.227C1.863 8.04 2 7.86 1.863 7.77c.045-.183.136-.228.318-.32-.046-.408-.273-.817-.137-1.226l-.09-.09c.09 0 .09-.046.136-.092C1.5 3.862 2.5 1.59 4.365.227 5.682-.183 7.136.727 7.318 2zm2.364 19.898h-.137l-.18.136.317-.136zm.954 3.453c.046.137.228.32.09.41.047 0 .092.045.138.09-.046.09.18.228 0 .09l-.228-.59zM9.5 32.076l-.09.227.18-.182c.046.045.092.09.137.09l-.227-.135zm.727.09l-.09.09.09.092c.137 0-.272-.045-.318.136-.183-.227-.32.046-.5.09h.09v.092h-.09c.363.182-.32 0-.5-.09.226.09.363.045.59-.092.045-.136.227-.045.318-.09l.09.09.137-.136-.136-.182c.135 0 .226.182.317 0zm-1.863.636l-.228.32.228-.32zM8 33.3h.09v.138H8c.09.09-.182-.137-.227-.228 0 .09.136.09.227.09zm.364.456c-.046.272.272.363.41.59l.317.09c-.135-.044-.18.092-.226.137.045-.41-.41-.18-.5-.545l-.09.09c-.047-.09.044-.09.09-.135l-.228-.227.182.136.046-.136zm.91.68l-.23.228.32.318c-.137-.227.272-.41-.09-.545zm1.77 3.136l-.226.227.137.18c0 .046-.046.092-.09.137l-.138-.136.09.092c-.09.045-.18.272-.09.09l.09-.09c.183 0 .183.318.228.136.137-.182.046-.454 0-.636zm.23.136l.226.5c.227-.136-.182-.364 0-.5h-.227zm-.547.954l.09.09-.09.092.09.09-.09.092c.046.045.09.09.09.18-.044-.09-.272-.27 0-.408-.09-.045-.09-.18 0-.227-.09 0-.135.047-.09.092zm-.636.318l.092.09c-.227.274-.455.32-.5.637-.09-.045-.09-.136-.09-.227l-.092.09.09.092c-.045.136.046.318-.09.41-.045-.047-.09-.092-.182-.092l.182.136c-.136.182-.182.318-.41.41l.092.09-.182.18c.09.138-.09.32-.136.5l-.137-.18.09.09-.09.09c-.045.092.046.092.09.137-.317.273-.408.727-.635.955-.137.045 0 .363-.227.318v.18c-.137.138-.182.637-.5.32.227.635.454 1.408 1.045 1.77l.09-.09.092.09.09-.09.092.09c.045.137-.09.5 0 .32h.227c.046.045.092.09.092.135.227 0 .41-.135.545-.317l-.09-.09.318-.318h-.09c-.092-.09 0-.273.09-.41l.09.09c-.18-.09-.18-.27-.09-.407l-.182.227c.045-.318-.41-.182-.228-.545.046-.046.09-.137.137-.09-.046-.047-.09-.092-.09-.183-.047.09-.137.09-.228.09-.09-.09 0-.272.09-.408.09 0 .09.044.182.09-.045-.136.046-.318-.09-.41.045-.044.09-.09.136-.09.227-.318.182-.863.41-1.136 0-.09-.047-.272.09-.318l.09.09c.273-.362-.18-.68.092-1.044l-.09-.09c.044-.182.09-.41.09-.546.272-.318-.32-.363-.273-.636z"/><g><path d="M181.955 13.947c0 .318-.273.41-.546.41h-.637v-.773h.59c.228-.045.592 0 .592.363zm.41 1.727l-.683-1.045c.09 0 .182-.047.273-.092.227-.136.363-.363.363-.59 0-.182-.045-.32-.136-.455-.182-.182-.41-.227-.637-.227h-1.136v2.408h.363V14.63h.59l.637.998h.364v.046z"/><path d="M178.773 14.538c0 1.408 1.136 2.59 2.59 2.59 1.41 0 2.592-1.136 2.592-2.59 0-1.408-1.137-2.59-2.59-2.59-1.41 0-2.592 1.182-2.592 2.59zm.318 0c0-1.227 1-2.272 2.274-2.272 1.227 0 2.272 1 2.272 2.272 0 1.227-1 2.272-2.272 2.272-1.228 0-2.273-1.045-2.273-2.272z"/></g><path d="M190.41 32.71c-.91 0-2.728-.09-3.955-.363-.32-.09-.546-.227-.546-.5v-.863c0-.227.18-.363.454-.363h.09c1.182.137 3.046.273 3.91.273 1.636 0 2.454-.41 2.454-1.77 0-.774-.454-1.228-1.863-2.09l-2.546-1.5c-1.546-.91-2.546-2-2.546-3.59 0-2.59 1.954-3.316 4.545-3.316 1.408 0 2.726.136 3.908.318.318.045.455.227.455.5v.817c0 .318-.182.41-.41.41h-.09c-.864-.092-2.455-.182-3.864-.182-1.41 0-2.32.18-2.32 1.453 0 .773.592 1.227 1.728 1.908l2.455 1.455c2.09 1.227 2.772 2.317 2.772 3.77.046 2.59-1.863 3.636-4.636 3.636zM207.41 32.53h-1.183c-.272 0-.5-.228-.5-.5v-8.224c0-2.5-1.045-3.27-2.682-3.27-.772 0-2.363.18-3.454.68V32.03c0 .226-.226.5-.5.5h-1.226c-.273 0-.455-.228-.455-.5V14.22c0-.273.18-.5.454-.5h1.272c.273 0 .455.227.455.5v5.134c1.183-.545 2.774-.773 3.82-.773 2.635 0 4.5 1.546 4.5 5.18v8.224c0 .318-.228.545-.5.545zM216.045 32.71c-3.68 0-5.545-2.407-5.545-6.087v-1.908c0-3.68 1.864-6.088 5.545-6.088 3.682 0 5.59 2.408 5.59 6.088v1.908c-.044 3.68-1.908 6.088-5.59 6.088zm3.364-7.995c0-2.544-1.046-4.18-3.365-4.18-2.318 0-3.363 1.59-3.363 4.18v1.908c0 2.544 1 4.18 3.363 4.18 2.32 0 3.364-1.59 3.364-4.18v-1.908zM229.455 32.71c-.773 0-1.955-.09-2.91-.272v4.543c0 .228-.18.455-.454.455h-1.272c-.227 0-.454-.18-.454-.454V19.764c0-.318.09-.455.545-.59 1.317-.32 3.09-.592 4.59-.592 3.727 0 5.455 2.41 5.455 6.18v1.817c-.09 3.953-1.864 6.134-5.5 6.134zm3.227-7.904c0-2.635-.773-4.316-3.273-4.316-1.046 0-2.228.136-2.91.272v9.904c.818.137 2.136.273 2.91.273 2.454 0 3.272-1.59 3.272-4.272v-1.862z"/></g></svg>