<?xml version="1.0" encoding="utf-8"?>
<!-- Generator: Adobe Illustrator 20.1.0, SVG Export Plug-In . SVG Version: 6.00 Build 0)  -->
<svg version="1.1" id="Слой_1" xmlns="http://www.w3.org/2000/svg" xmlns:xlink="http://www.w3.org/1999/xlink" x="0px" y="0px"
	 viewBox="0 0 407.9 185.6" style="enable-background:new 0 0 407.9 185.6;" xml:space="preserve">
<style type="text/css">
	.st0{filter:url(#Adobe_OpacityMaskFilter);}
	.st1{fill:#FFFFFF;}
	.st2{mask:url(#mask-2);}
	.st3{fill:#447BEF;}
</style>
<g>
	<defs>
		<filter id="Adobe_OpacityMaskFilter" filterUnits="userSpaceOnUse" x="0" y="0" width="407.9" height="185.6">
			<feColorMatrix  type="matrix" values="1 0 0 0 0  0 1 0 0 0  0 0 1 0 0  0 0 0 1 0"/>
		</filter>
	</defs>
	<mask maskUnits="userSpaceOnUse" x="0" y="0" width="407.9" height="185.6" id="mask-2">
		<rect class="st0" width="407.9" height="185.6"/>
		<g>
			<rect id="rect-1" class="st1" width="407.9" height="185.6"/>
		</g>
	</mask>
	<g class="st2">
		<g>
			<g>
				<g>
					<path class="st3" d="M107.1,1.7L94.7,22.1h0.2L50.1,95.5h46.7L81,144.9l49.4-69.5H90.3L120,27.9c24.8,10.8,42.2,35.7,42.2,64.4
						c0,38.7-31.5,70.4-70.4,70.4s-70.4-31.5-70.4-70.4c0-31.7,21-58.4,49.7-67.3l15-24.5C38.3,3.5,0,43.5,0,92.3
						c0,50.8,41.3,91.9,91.8,91.9s91.8-41.3,91.8-91.9C183.8,46.9,150.6,9,107.1,1.7L107.1,1.7z"/>
				</g>
				<g>
					<g>
						<path class="st3" d="M265.4,0l-17,41.7H234l-1.4-25.8l-10.2,25.8h-14.4L205.5,0H218l-0.5,28.4L229.1,0h12.6l1.5,28.4L252.8,0
							H265.4z"/>
					</g>
					<g>
						<path class="st3" d="M278,9.3l-1.2,6.9h13.5l-1.7,8.9h-13.5l-1.4,7.5h15.3l-1.7,9.3h-26.9L267.9,0h26.9l-1.7,9.3H278z"/>
					</g>
					<g>
						<path class="st3" d="M211.2,89.6l2.4-14v-0.2h5.9c3.3,0,6.3-0.6,8.9-1.8c2.6-1.2,4.7-2.9,6.2-5c1.5-2.1,2.6-4.4,3-7.1
							c0.2-1.1,0.3-2.1,0.3-3c0-3.3-1.2-6-3.5-8c-2.4-2-5.7-2.9-10.1-2.9H207l-7.4,41.7H211.2z M225.6,61.7
							c-0.3,1.5-0.9,2.7-1.8,3.5c-0.9,0.9-2.4,1.4-4.1,1.2h-4.4l1.7-9.3h4.4c2.9,0,4.4,1.2,4.4,3.5
							C225.8,60.8,225.8,61.1,225.6,61.7z"/>
					</g>
					<g>
						<path class="st3" d="M276.9,56c-1.5-2.7-3.8-5-6.6-6.5c-2.9-1.7-6.3-2.4-10.2-2.1c-3.9,0-7.5,0.8-10.8,2.4
							c-3.2,1.7-5.9,3.9-8,6.8c-2,2.9-3.5,6.3-4.1,10.1c-0.3,1.7-0.5,3.3-0.5,5.3c0,3.8,0.8,6.9,2.3,9.6c1.5,2.7,3.6,4.8,6.5,6.3
							c2.9,1.5,6.5,2.3,10.4,2.3c3.9,0,7.7-0.8,10.8-2.4c3.3-1.7,5.9-3.9,8-6.9c2-3,3.5-6.3,4.1-10.1c0.3-2,0.5-3.6,0.5-5.1
							C279.2,62,278.4,58.7,276.9,56z M248.4,68c0.6-3,1.8-5.6,3.8-7.4c2-1.8,4.4-2.7,6.9-2.9c2.7,0,4.7,0.8,6.2,2.3
							c1.5,1.5,2.3,3.6,2.3,6.2c0,0.8-0.2,1.8-0.3,2.9c-0.6,3-1.8,5.6-3.8,7.4s-4.2,2.7-7.1,2.7c-2.7,0-4.7-0.8-6.2-2.3
							c-1.4-1.5-2.1-3.5-2.1-6.2C248.1,69.8,248.3,68.8,248.4,68z"/>
					</g>
					<g>
						<path class="st3" d="M343.5,47.9l-17,41.7h-14.4l-1.4-25.8l-10.2,25.8h-14.4l-2.4-41.7h12.5l-0.5,28.4l11.4-28.4h12.6
							l1.5,28.4l9.6-28.4H343.5z"/>
					</g>
					<g>
						<path class="st3" d="M356.3,57.1l-1.2,6.9h13.5l-1.7,8.9h-13.5l-1.4,7.5h15.3l-1.7,9.3h-26.9l7.4-41.7h26.9l-1.7,9.3h-15.2
							V57.1z"/>
					</g>
					<g>
						<path class="st3" d="M407.9,58.7c0-3.3-1.2-6-3.5-8c-2.3-2-5.7-2.9-10.1-2.9h-18.3l-7.4,41.7h11.6l2.7-15.3h1.2l5.7,15.3h12.8
							l-6.8-16.2c3.2-0.9,5.9-2.4,7.8-4.5c2.1-2.1,3.3-4.7,3.9-7.7C407.8,60.1,407.9,59.2,407.9,58.7z M390,66.4h-5.7l1.7-8.9h5.7
							c2.7,0,4.1,1.2,4.1,3.5V62C395.1,64.9,393.2,66.4,390,66.4z"/>
					</g>
					<g>
						<path class="st3" d="M245,95.7l-19.8,28.5l-2.3,13.2h-11.6l2.3-13.2L204,95.7h13.2l4.5,15.9l10.2-15.9H245z"/>
					</g>
					<g>
						<path class="st3" d="M281,103.8c-1.5-2.7-3.8-5-6.6-6.5c-2.9-1.5-6.2-2.3-10.2-2.1c-3.9,0-7.5,0.8-10.8,2.4
							c-3.2,1.7-5.9,3.9-8,6.8c-2,2.9-3.5,6.3-4.1,10.1c-0.3,1.7-0.5,3.3-0.5,5.3c0,3.8,0.8,6.9,2.3,9.6c1.5,2.7,3.6,4.8,6.5,6.3
							c2.9,1.5,6.5,2.3,10.4,2.3c3.9,0,7.7-0.8,10.8-2.4c3.3-1.7,5.9-3.9,8-6.9c2-3,3.5-6.3,4.1-10.1c0.3-2,0.5-3.6,0.5-5.1
							C283.2,109.8,282.5,106.5,281,103.8z M252.6,115.9c0.6-3,1.8-5.6,3.8-7.4c1.8-2,4.2-2.9,6.9-2.9c2.7,0,4.7,0.8,6.2,2.3
							c1.5,1.5,2.3,3.6,2.3,6.2c0,0.8-0.2,1.8-0.3,2.9c-0.6,3-1.8,5.6-3.8,7.4s-4.2,2.7-7.1,2.7c-2.7,0-4.7-0.8-6.2-2.3
							c-1.4-1.5-2.1-3.5-2.1-6.2C252.3,117.7,252.5,116.7,252.6,115.9z"/>
					</g>
					<g>
						<path class="st3" d="M300.8,95.7l-4.2,23.9c-0.2,1.1-0.3,1.8-0.3,2.3c0,1.7,0.5,2.9,1.4,3.8s2.3,1.4,3.9,1.4
							c2.1,0,3.9-0.6,5.1-2c1.4-1.4,2.1-3.2,2.6-5.4l4.2-23.9h11.6l-4.2,23.9c-0.8,3.9-2.1,7.2-4.2,10.1c-2.1,2.7-4.7,4.8-7.7,6.2
							c-3,1.4-6.2,2.1-9.6,2.1c-4.5,0-8.1-1.2-10.8-3.6c-2.7-2.4-4.1-5.9-4.1-10.4c0-1.5,0.1-3,0.5-4.5l4.2-23.9h11.7V95.7z"/>
					</g>
					<g>
						<path class="st3" d="M360.5,106.6c0-3.3-1.2-6-3.5-8c-2.3-2-5.6-3-9.9-3h-18.3l-7.4,41.7H333l2.6-15.2h1.2l5.7,15.3h12.8
							l-6.8-16.2c3.2-0.9,5.9-2.4,7.8-4.5c2.1-2.1,3.3-4.7,3.9-7.7C360.3,108,360.5,107.1,360.5,106.6z M342.8,114.3h-5.7l1.7-8.9
							h5.7c2.7,0,4.1,1.2,4.1,3.5v1.1C347.9,112.8,345.9,114.3,342.8,114.3z"/>
					</g>
					<g>
						<path class="st3" d="M235.5,145.1c2.6,1.4,4.5,3.2,5.9,5.6c1.4,2.4,2.1,5.3,2.1,8.4h-12.3c-0.5-1.7-1.2-3-2.4-3.9
							s-2.9-1.4-4.7-1.4c-2.6,0-4.8,0.9-6.6,2.9c-2,2-3.2,4.5-3.8,7.7c-0.2,0.8-0.3,1.8-0.3,2.7c0,2.4,0.6,4.4,1.8,5.7
							c1.2,1.4,2.9,2.1,5.1,2.1c1.8,0,3.6-0.5,5.1-1.4c1.5-0.9,2.9-2.3,3.9-3.9h12.2c-1.8,4.8-4.8,8.7-8.9,11.7
							c-4.1,2.9-8.7,4.4-14.1,4.4c-3.6,0-6.6-0.8-9.3-2.1c-2.7-1.4-4.5-3.3-5.9-5.9c-1.4-2.6-2-5.4-2-8.7c0-1.5,0.2-3.2,0.5-4.7
							c0.8-4.1,2.3-7.8,4.4-11c2.3-3.2,5.1-5.7,8.4-7.5c3.5-1.8,7.2-2.7,11.3-2.7C229.8,143.1,233,143.9,235.5,145.1L235.5,145.1z"
							/>
					</g>
					<g>
						<path class="st3" d="M254.4,178.4h14.9l0.9,6.9h12.3l-8-41.6h-13.4l-22.5,41.6h12.2L254.4,178.4z M265.8,156l2.1,13.5h-9
							L265.8,156z"/>
					</g>
					<g>
						<path class="st3" d="M322.8,154.5c0-3.3-1.2-6-3.5-8c-2.3-2.1-5.7-3-10.1-2.9H291l-7.4,41.7h11.6l2.7-15.3h1.2l5.7,15.3h12.8
							l-6.8-16.2c3.2-0.9,5.9-2.4,7.8-4.5c2.1-2.1,3.3-4.7,3.9-7.7C322.7,155.9,322.8,155,322.8,154.5z M305.1,162.2h-5.7l1.7-8.9
							h5.7c2.7,0,4.1,1.2,4.1,3.5v1.1C310.2,160.7,308.3,162.2,305.1,162.2z"/>
					</g>
				</g>
			</g>
		</g>
	</g>
</g>
</svg>
